<?xml version="1.0" encoding="UTF-8" standalone="no"?>
<!-- Created with Inkscape (http://www.inkscape.org/) -->

<svg
   width="180"
   height="180"
   viewBox="0 0 180 180"
   version="1.1"
   id="svg5"
   inkscape:version="1.1.1 (3bf5ae0d25, 2021-09-20, custom)"
   sodipodi:docname="tl logo.svg"
   xmlns:inkscape="http://www.inkscape.org/namespaces/inkscape"
   xmlns:sodipodi="http://sodipodi.sourceforge.net/DTD/sodipodi-0.dtd"
   xmlns="http://www.w3.org/2000/svg"
   xmlns:svg="http://www.w3.org/2000/svg">
  <sodipodi:namedview
     id="namedview7"
     pagecolor="#505050"
     bordercolor="#ffffff"
     borderopacity="1"
     inkscape:pageshadow="0"
     inkscape:pageopacity="0"
     inkscape:pagecheckerboard="1"
     inkscape:document-units="px"
     showgrid="false"
     inkscape:zoom="1.9128544"
     inkscape:cx="119.1936"
     inkscape:cy="89.917978"
     inkscape:window-width="1366"
     inkscape:window-height="698"
     inkscape:window-x="0"
     inkscape:window-y="34"
     inkscape:window-maximized="1"
     inkscape:current-layer="layer1" />
  <defs
     id="defs2">
    <inkscape:path-effect
       effect="fillet_chamfer"
       id="path-effect1839"
       is_visible="true"
       lpeversion="1"
       satellites_param="F,0,0,1,0,2,0,1 @ F,0,0,1,0,2,0,1 @ F,0,0,1,0,2,0,1 @ F,0,0,1,0,2,0,1 @ F,0,0,1,0,2,0,1 @ F,0,0,1,0,2,0,1 @ F,0,0,1,0,2,0,1 @ F,0,0,1,0,2,0,1 | F,0,0,1,0,2,0,1 @ F,0,0,1,0,2,0,1 @ F,0,0,1,0,2,0,1 @ F,0,0,1,0,2,0,1"
       unit="px"
       method="auto"
       mode="F"
       radius="2"
       chamfer_steps="1"
       flexible="false"
       use_knot_distance="true"
       apply_no_radius="true"
       apply_with_radius="true"
       only_selected="false"
       hide_knots="false" />
    <inkscape:path-effect
       effect="fillet_chamfer"
       id="path-effect1417"
       is_visible="true"
       lpeversion="1"
       satellites_param="F,0,0,1,0,2,0,1 @ F,0,0,1,0,2,0,1 @ F,0,0,1,0,2,0,1 @ F,0,0,1,0,2,0,1 @ F,0,0,1,0,2,0,1 @ F,0,0,1,0,2,0,1 @ F,0,0,1,0,2,0,1 @ F,0,0,1,0,2,0,1 | F,0,0,1,0,2,0,1 @ F,0,0,1,0,2,0,1 @ F,0,0,1,0,2,0,1 @ F,0,0,1,0,2,0,1"
       unit="px"
       method="auto"
       mode="F"
       radius="2"
       chamfer_steps="1"
       flexible="false"
       use_knot_distance="true"
       apply_no_radius="true"
       apply_with_radius="true"
       only_selected="false"
       hide_knots="false" />
    <rect
       x="12.240551"
       y="42.759221"
       width="115.45697"
       height="115.23852"
       id="rect8806" />
    <rect
       x="34.708142"
       y="41.19587"
       width="127.37192"
       height="117.69169"
       id="rect4104" />
  </defs>
  <g
     inkscape:label="Layer 1"
     inkscape:groupmode="layer"
     id="layer1">
    <path
       id="text4102"
       style="font-style:normal;font-weight:normal;font-size:85.3333px;line-height:1.25;font-family:sans-serif;white-space:pre;shape-inside:url(#rect4104);fill:#ffffff;fill-opacity:1;stroke:none;stroke-width:1.80936"
       d="M 33.227576,72.852831 C 57.499442,107.48971 87.240225,147.3842 96.91986,160.5747 c 0.652513,0.88919 1.903243,1.08415 2.795986,0.4337 l 54.163924,-39.46362 a 2.0000723,2.0000723 98.924105 0 0 0.43877,-2.79424 l -5.45657,-7.48971 a 1.9999319,1.9999319 8.9241656 0 0 -2.79414,-0.43876 l -9.51685,6.93391 a 1.9999316,1.9999316 8.9241699 0 1 -2.79414,-0.43876 L 85.550977,51.149501 a 2.0000743,2.0000743 98.924086 0 1 0.43877,-2.79424 l 29.184123,-21.26347 a 2.0000731,2.0000731 98.92407 0 0 0.43877,-2.794239 l -5.45868,-7.492605 a 1.9999273,1.9999273 8.9240759 0 0 -2.79413,-0.438753 L 33.697183,70.036569 c -0.892742,0.65045 -1.103493,1.911683 -0.469607,2.816262 z M 53.406989,72.094942 70.692519,59.50076 a 1.9999263,1.9999263 8.9240927 0 1 2.794136,0.438754 l 48.205855,66.167706 a 2.0000745,2.0000745 98.924082 0 1 -0.43877,2.79424 l -17.28555,12.59421 a 1.999925,1.999925 8.92409 0 1 -2.79413,-0.43876 L 52.968219,74.889182 a 2.0000743,2.0000743 98.924101 0 1 0.43877,-2.79424 z"
       sodipodi:nodetypes="cccccccccccccc"
       inkscape:original-d="m 32.08073,71.214312 c 25.5545,36.553828 57.715783,79.591098 66.018662,90.971828 l 57.396828,-41.8191 -7.81193,-10.72271 -12.74977,9.28939 L 84.373294,49.533004 116.79032,25.914048 108.97628,15.188451 Z m 19.709806,2.058373 20.518436,-14.949668 50.561218,69.400703 -20.51845,14.94969 z"
       inkscape:path-effect="#path-effect1417" />
  </g>
</svg>
